<svg width="20" height="20" viewBox="0 0 20 20" fill="none" xmlns="http://www.w3.org/2000/svg">
<path d="M9.85395 19.354L15.854 13.354C16.049 13.159 16.049 12.842 15.854 12.647C15.659 12.452 15.342 12.452 15.147 12.647L10.001 17.793V1.5C10.001 1.224 9.77695 1 9.50095 1C9.22495 1 9.00095 1.224 9.00095 1.5V17.793L3.85495 12.647C3.65995 12.452 3.34295 12.452 3.14795 12.647C3.04995 12.745 3.00195 12.873 3.00195 13.001C3.00195 13.129 3.05095 13.257 3.14795 13.355L9.14795 19.355C9.34295 19.55 9.65995 19.55 9.85495 19.355L9.85395 19.354Z" fill="#111517"/>
</svg>
