<svg width="20" height="20" viewBox="0 0 20 20" fill="none" xmlns="http://www.w3.org/2000/svg">
<path d="M0.645785 10.146L6.64578 4.146C6.84078 3.951 7.15779 3.951 7.35279 4.146C7.54779 4.341 7.54779 4.658 7.35279 4.853L2.20679 9.999H18.4998C18.7758 9.999 18.9998 10.223 18.9998 10.499C18.9998 10.775 18.7758 10.999 18.4998 10.999H2.20679L7.35279 16.145C7.54779 16.34 7.54779 16.657 7.35279 16.852C7.25479 16.95 7.12679 16.998 6.99879 16.998C6.87079 16.998 6.74278 16.949 6.64478 16.852L0.644785 10.852C0.449785 10.657 0.449785 10.34 0.644785 10.145L0.645785 10.146Z" fill="white"/>
</svg>
