<svg width="20" height="20" viewBox="0 0 20 20" fill="none" xmlns="http://www.w3.org/2000/svg">
<g clip-path="url(#clip0_53_8)">
<path d="M10.25 20C7.512 20 4.938 18.934 3.002 16.998C1.066 15.062 0 12.488 0 9.75C0 7.499 0.723 5.375 2.09 3.607C2.745 2.76 3.529 2.022 4.421 1.413C5.32 0.799002 6.309 0.330002 7.359 0.0210017C7.551 -0.0359983 7.758 0.0280017 7.886 0.182002C8.014 0.336002 8.037 0.551002 7.946 0.729002C7.301 1.986 7.001 3.184 7.001 4.501C7.001 9.188 10.814 13.001 15.501 13.001C16.818 13.001 18.016 12.701 19.273 12.056C19.451 11.965 19.666 11.988 19.82 12.116C19.974 12.244 20.037 12.451 19.981 12.643C19.671 13.693 19.203 14.682 18.589 15.581C17.98 16.473 17.242 17.257 16.395 17.912C14.627 19.279 12.502 20.002 10.252 20.002L10.25 20ZM6.57 1.365C3.196 2.81 1 6.054 1 9.75C1 14.85 5.15 19 10.25 19C13.946 19 17.19 16.803 18.635 13.43C17.611 13.813 16.577 14 15.5 14C12.962 14 10.577 13.012 8.783 11.218C6.989 9.424 6 7.038 6 4.5C6 3.423 6.188 2.389 6.57 1.365V1.365Z" fill="#111517"/>
</g>
<defs>
<clipPath id="clip0_53_8">
<rect width="20" height="20" fill="white"/>
</clipPath>
</defs>
</svg>
